<svg aria-hidden="true" style="position: absolute; width: 0; height: 0; overflow: hidden;" version="1.1" xmlns="http://www.w3.org/2000/svg" xmlns:xlink="http://www.w3.org/1999/xlink">
<defs>
<symbol id="icon-logo" viewBox="0 0 22 32">
<path d="M0 16v16h22.225v-32h-22.225v16zM22.175 16v15.95h-22.125v-31.9h22.125v15.95z"></path>
<path d="M11.080 2.223c-0.39 0.395-0.762 1.133-0.89 1.752-0.082 0.403-0.098 0.65-0.082 1.337 0.023 0.987 0.127 4.058 0.22 6.475 0.072 1.905-0.115 3.45-0.57 4.713-0.172 0.475-0.315 0.76-0.465 0.935-0.395 0.453-0.807 1.078-1.088 1.645-0.49 0.997-0.748 2.045-0.795 3.235l-0.018 0.41 0.735-0.005 0.735-0.008 0.015-0.375c0.020-0.425 0.135-1.22 0.245-1.675 0.205-0.845 0.563-1.607 1.067-2.288 0.21-0.28 0.745-0.832 0.943-0.97l0.12-0.085 0.29 0.285c0.943 0.925 1.6 2.078 1.867 3.273 0.088 0.398 0.19 1.15 0.207 1.53l0.015 0.317 0.727-0.005 0.727-0.008-0.008-0.325c-0.018-0.968-0.22-1.925-0.59-2.825-0.29-0.698-0.8-1.525-1.287-2.085-0.075-0.087-0.158-0.212-0.182-0.275-0.023-0.063-0.088-0.225-0.143-0.36-0.32-0.777-0.557-1.755-0.662-2.742-0.098-0.902-0.11-1.645-0.053-3.037 0.020-0.495 0.060-1.592 0.088-2.438s0.068-2.043 0.090-2.66c0.043-1.218 0.030-1.525-0.068-1.987-0.143-0.655-0.475-1.315-0.875-1.737l-0.165-0.172-0.152 0.155z"></path>
<path d="M2.975 14.675v9.85h4.568l0.070 0.267c0.22 0.852 0.643 1.715 1.192 2.44 0.575 0.758 1.405 1.5 2.2 1.975l0.24 0.142 0.255-0.145c0.838-0.483 1.637-1.198 2.245-2.012 0.285-0.378 0.455-0.663 0.67-1.105 0.223-0.46 0.332-0.755 0.453-1.212l0.090-0.35h4.568v-19.7h-0.050c-0.16 0-0.905 0.51-1.47 1.010-0.84 0.74-1.617 1.787-2.117 2.85-0.473 1.002-0.78 2.158-0.898 3.377-0.117 1.185-0.15 1.492-0.24 2.225-0.098 0.8-0.185 1.563-0.27 2.39l-0.045 0.442 0.277 0.010c0.313 0.012 0.465 0.058 0.717 0.21 0.498 0.302 0.77 0.817 0.695 1.302-0.067 0.427-0.36 0.773-0.92 1.082-0.057 0.032-0.1 0.073-0.095 0.085 0.070 0.163 0.255 0.845 0.318 1.157 0.015 0.087 0.037 0.157 0.047 0.157 0.040 0 0.47-0.183 0.6-0.255 0.593-0.335 1.010-0.795 1.242-1.37 0.152-0.372 0.192-0.595 0.195-1.050 0-0.497-0.043-0.69-0.247-1.113-0.233-0.477-0.547-0.832-0.997-1.13-0.185-0.122-0.258-0.185-0.283-0.248-0.033-0.075-0.023-0.182 0.090-1.090 0.128-1.035 0.218-1.855 0.288-2.557 0.020-0.22 0.063-0.54 0.090-0.713 0.157-0.988 0.567-2.135 1.055-2.95 0.175-0.293 0.587-0.925 0.605-0.925 0.008 0 0.012 3.497 0.012 7.775v7.775h-5.625v1.25h0.457c0.252 0 0.465 0.008 0.473 0.015 0.023 0.023-0.12 0.532-0.23 0.828-0.213 0.563-0.547 1.135-0.945 1.608-0.11 0.13-0.223 0.26-0.252 0.285l-0.053 0.047 0.005-2.172 0.008-2.172 0.085-0.172c0.158-0.323 0.512-0.598 0.935-0.73 0.115-0.035 0.143-0.055 0.143-0.098 0-0.195-0.16-1.152-0.2-1.198-0.025-0.025-0.313 0.067-0.502 0.163s-0.602 0.375-0.918 0.62l-0.258 0.203-0.293-0.23c-0.33-0.258-0.678-0.492-0.88-0.595-0.19-0.095-0.475-0.185-0.5-0.16-0.040 0.043-0.22 1.107-0.205 1.227 0 0.008 0.088 0.047 0.193 0.085 0.438 0.16 0.738 0.4 0.89 0.712l0.085 0.172 0.005 2.163 0.008 2.163-0.165-0.17c-0.3-0.313-0.645-0.815-0.87-1.262-0.19-0.38-0.492-1.27-0.445-1.315 0.008-0.008 0.22-0.015 0.473-0.015h0.457v-1.25h-5.625v-7.775c0-4.277 0.005-7.775 0.010-7.775 0.015 0 0.428 0.64 0.615 0.95 0.353 0.582 0.705 1.46 0.9 2.238 0.112 0.447 0.19 0.963 0.275 1.813 0.043 0.42 0.133 1.223 0.202 1.787 0.070 0.563 0.133 1.12 0.138 1.238 0.015 0.257 0.015 0.257-0.315 0.478-0.84 0.558-1.333 1.543-1.225 2.453 0.133 1.148 0.76 1.953 1.845 2.37 0.105 0.043 0.197 0.075 0.205 0.075s0.030-0.087 0.048-0.195c0.037-0.225 0.178-0.777 0.253-0.99 0.027-0.082 0.050-0.15 0.050-0.155 0-0.003-0.093-0.063-0.205-0.133-0.588-0.355-0.813-0.688-0.805-1.19 0.005-0.372 0.133-0.64 0.423-0.907 0.325-0.295 0.588-0.407 0.995-0.425 0.242-0.010 0.268-0.015 0.268-0.058 0-0.098-0.18-1.732-0.287-2.623-0.138-1.14-0.178-1.495-0.225-2.063-0.095-1.072-0.242-1.832-0.525-2.675-0.612-1.84-1.737-3.375-3.283-4.48-0.305-0.218-0.627-0.407-0.698-0.407h-0.058v9.85z"></path>
</symbol>
<symbol id="icon-search-1" viewBox="0 0 32 32">
<path stroke-linejoin="round" stroke-linecap="round" stroke-miterlimit="4" stroke-width="2.4" d="M14.667 25.333c5.891 0 10.667-4.776 10.667-10.667s-4.776-10.667-10.667-10.667c-5.891 0-10.667 4.776-10.667 10.667s4.776 10.667 10.667 10.667z"></path>
<path stroke-linejoin="round" stroke-linecap="round" stroke-miterlimit="4" stroke-width="2.4" d="M28 28l-5.8-5.8"></path>
</symbol>
<symbol id="icon-Next" viewBox="0 0 32 32">
<path d="M13.88 8l-1.88 1.88 6.107 6.12-6.107 6.12 1.88 1.88 8-8-8-8z"></path>
</symbol>
<symbol id="icon-Prev" viewBox="0 0 32 32">
<path d="M20.12 24l1.88-1.88-6.107-6.12 6.107-6.12-1.88-1.88-8 8 8 8z"></path>
</symbol>
<symbol id="icon-Date" viewBox="0 0 120 32">
<path d="M13.905 26.752c-7.744 0-13.904-5.808-13.904-13.024v-0.88c0-7.040 6.16-12.848 13.904-12.848 7.568 0 14.080 5.808 14.080 12.848v0.88c0 7.216-6.512 13.024-14.080 13.024zM56.53 26.752c-7.744 0-13.904-5.808-13.904-13.024v-0.88c0-7.040 6.16-12.848 13.904-12.848 7.568 0 14.080 5.808 14.080 12.848v0.88c0 7.216-6.512 13.024-14.080 13.024zM99.155 26.752c-7.744 0-13.904-5.808-13.904-13.024v-0.88c0-7.040 6.16-12.848 13.904-12.848 7.568 0 14.080 5.808 14.080 12.848v0.88c0 7.216-6.512 13.024-14.080 13.024z"></path>
</symbol>
<symbol id="icon-select-arrow" viewBox="0 0 32 32">
<path d="M16 22.003l-10-10 1.4-1.4 8.6 8.6 8.6-8.6 1.4 1.4-10 10z"></path>
<path d="M16 22.003l-1.697 1.697 1.697 1.697 1.697-1.697-1.697-1.697zM6 12.003l-1.697-1.697-1.697 1.697 1.697 1.697 1.697-1.697zM7.4 10.603l1.697-1.697-1.697-1.697-1.697 1.697 1.697 1.697zM16 19.203l-1.697 1.697 1.697 1.697 1.697-1.697-1.697-1.697zM24.6 10.603l1.697-1.697-1.697-1.697-1.697 1.697 1.697 1.697zM26 12.003l1.697 1.697 1.697-1.697-1.697-1.697-1.697 1.697zM17.697 20.306l-10-10-3.394 3.394 10 10 3.394-3.394zM7.697 13.7l1.4-1.4-3.394-3.394-1.4 1.4 3.394 3.394zM5.703 12.3l8.6 8.6 3.394-3.394-8.6-8.6-3.394 3.394zM17.697 20.9l8.6-8.6-3.394-3.394-8.6 8.6 3.394 3.394zM22.903 12.3l1.4 1.4 3.394-3.394-1.4-1.4-3.394 3.394zM24.303 10.306l-10 10 3.394 3.394 10-10-3.394-3.394z"></path>
</symbol>
</defs>
</svg>
